<svg xmlns="http://www.w3.org/2000/svg" viewBox="0 0 403 1936" width="403" height="1936">
  <rect width="403" height="1936" fill="#1A1A1A"/>
  <g transform="translate(24.0,24.0)">
<rect width="355.31" height="231.09" fill="#FFFFFF"/>
  <path transform="translate(28.0000,154.6286) scale(0.1142857,-0.1142857)" fill="#0D1117" d="M429 -200 514 -161V511H429V467C399 494 358 523 293 523C153 523 70 419 70 255C70 86 159 -12 292 -12C359 -12 397 13 429 48ZM299 67C207 67 158 133 158 255C158 362 210 445 304 445C356 445 401 423 429 375V138C405 108 367 67 299 67Z"/>
  <path transform="translate(66.6286,154.6286) scale(0.1142857,-0.1142857)" fill="#4493F8" d="M266 -378H351V1062H266Z"/>
  <path transform="translate(107.4286,154.6286) scale(0.1142857,-0.1142857)" fill="#0D1117" d="M532 278C532 448 435 523 318 523C177 523 84 425 84 256C84 106 171 -12 318 -12C386 -12 446 15 488 53L440 109C402 78 362 65 321 65C238 65 185 125 172 222H529C532 245 532 264 532 278ZM170 296C177 388 225 447 318 447C374 447 444 415 447 296Z"/>
  <path transform="translate(170.2857,154.6286) scale(0.1142857,-0.1142857)" fill="#0D1117" d="M292 -12C359 -12 402 13 429 42V0H514V722L429 681V475C400 500 357 523 291 523C158 523 72 423 72 256C72 91 156 -12 292 -12ZM303 67C213 67 159 149 159 256C159 377 210 445 302 445C370 445 409 409 429 379V137C403 92 359 67 303 67Z"/>
  <rect x="239.31" y="74.63" width="80.00" height="80.00" rx="3.20" fill="#4493F8"/>
  </g>
  <text x="24" y="268.1" font-family="monospace" font-size="10" fill="#666666">A — light bg / GitHub blue</text>
  <g transform="translate(24.0,297.1)">
<rect width="355.31" height="231.09" fill="#0D1117"/>
  <path transform="translate(28.0000,154.6286) scale(0.1142857,-0.1142857)" fill="#E6EDF3" d="M429 -200 514 -161V511H429V467C399 494 358 523 293 523C153 523 70 419 70 255C70 86 159 -12 292 -12C359 -12 397 13 429 48ZM299 67C207 67 158 133 158 255C158 362 210 445 304 445C356 445 401 423 429 375V138C405 108 367 67 299 67Z"/>
  <path transform="translate(66.6286,154.6286) scale(0.1142857,-0.1142857)" fill="#4493F8" d="M266 -378H351V1062H266Z"/>
  <path transform="translate(107.4286,154.6286) scale(0.1142857,-0.1142857)" fill="#E6EDF3" d="M532 278C532 448 435 523 318 523C177 523 84 425 84 256C84 106 171 -12 318 -12C386 -12 446 15 488 53L440 109C402 78 362 65 321 65C238 65 185 125 172 222H529C532 245 532 264 532 278ZM170 296C177 388 225 447 318 447C374 447 444 415 447 296Z"/>
  <path transform="translate(170.2857,154.6286) scale(0.1142857,-0.1142857)" fill="#E6EDF3" d="M292 -12C359 -12 402 13 429 42V0H514V722L429 681V475C400 500 357 523 291 523C158 523 72 423 72 256C72 91 156 -12 292 -12ZM303 67C213 67 159 149 159 256C159 377 210 445 302 445C370 445 409 409 429 379V137C403 92 359 67 303 67Z"/>
  <rect x="239.31" y="74.63" width="80.00" height="80.00" rx="3.20" fill="#4493F8"/>
  </g>
  <text x="24" y="541.2" font-family="monospace" font-size="10" fill="#666666">B — dark bg / GitHub blue</text>
  <g transform="translate(24.0,570.2)">
<rect width="355.31" height="231.09" fill="#0D1117"/>
  <path transform="translate(28.0000,154.6286) scale(0.1142857,-0.1142857)" fill="#E6EDF3" d="M429 -200 514 -161V511H429V467C399 494 358 523 293 523C153 523 70 419 70 255C70 86 159 -12 292 -12C359 -12 397 13 429 48ZM299 67C207 67 158 133 158 255C158 362 210 445 304 445C356 445 401 423 429 375V138C405 108 367 67 299 67Z"/>
  <path transform="translate(66.6286,154.6286) scale(0.1142857,-0.1142857)" fill="#E8A628" d="M266 -378H351V1062H266Z"/>
  <path transform="translate(107.4286,154.6286) scale(0.1142857,-0.1142857)" fill="#E6EDF3" d="M532 278C532 448 435 523 318 523C177 523 84 425 84 256C84 106 171 -12 318 -12C386 -12 446 15 488 53L440 109C402 78 362 65 321 65C238 65 185 125 172 222H529C532 245 532 264 532 278ZM170 296C177 388 225 447 318 447C374 447 444 415 447 296Z"/>
  <path transform="translate(170.2857,154.6286) scale(0.1142857,-0.1142857)" fill="#E6EDF3" d="M292 -12C359 -12 402 13 429 42V0H514V722L429 681V475C400 500 357 523 291 523C158 523 72 423 72 256C72 91 156 -12 292 -12ZM303 67C213 67 159 149 159 256C159 377 210 445 302 445C370 445 409 409 429 379V137C403 92 359 67 303 67Z"/>
  <rect x="239.31" y="74.63" width="80.00" height="80.00" rx="3.20" fill="#E8A628"/>
  </g>
  <text x="24" y="814.3" font-family="monospace" font-size="10" fill="#666666">C — dark bg / amber</text>
  <g transform="translate(24.0,843.3)">
<rect width="355.31" height="231.09" fill="#FFFFFF"/>
  <path transform="translate(28.0000,154.6286) scale(0.1142857,-0.1142857)" fill="#0D1117" d="M429 -200 514 -161V511H429V467C399 494 358 523 293 523C153 523 70 419 70 255C70 86 159 -12 292 -12C359 -12 397 13 429 48ZM299 67C207 67 158 133 158 255C158 362 210 445 304 445C356 445 401 423 429 375V138C405 108 367 67 299 67Z"/>
  <path transform="translate(66.6286,154.6286) scale(0.1142857,-0.1142857)" fill="#3FB950" d="M266 -378H351V1062H266Z"/>
  <path transform="translate(107.4286,154.6286) scale(0.1142857,-0.1142857)" fill="#0D1117" d="M532 278C532 448 435 523 318 523C177 523 84 425 84 256C84 106 171 -12 318 -12C386 -12 446 15 488 53L440 109C402 78 362 65 321 65C238 65 185 125 172 222H529C532 245 532 264 532 278ZM170 296C177 388 225 447 318 447C374 447 444 415 447 296Z"/>
  <path transform="translate(170.2857,154.6286) scale(0.1142857,-0.1142857)" fill="#0D1117" d="M292 -12C359 -12 402 13 429 42V0H514V722L429 681V475C400 500 357 523 291 523C158 523 72 423 72 256C72 91 156 -12 292 -12ZM303 67C213 67 159 149 159 256C159 377 210 445 302 445C370 445 409 409 429 379V137C403 92 359 67 303 67Z"/>
  <rect x="239.31" y="74.63" width="80.00" height="80.00" rx="3.20" fill="#3FB950"/>
  </g>
  <text x="24" y="1087.3" font-family="monospace" font-size="10" fill="#666666">D — light bg / terminal green</text>
  <g transform="translate(24.0,1116.3)">
<rect width="355.31" height="231.09" fill="#0D1117"/>
  <path transform="translate(28.0000,154.6286) scale(0.1142857,-0.1142857)" fill="#E6EDF3" d="M429 -200 514 -161V511H429V467C399 494 358 523 293 523C153 523 70 419 70 255C70 86 159 -12 292 -12C359 -12 397 13 429 48ZM299 67C207 67 158 133 158 255C158 362 210 445 304 445C356 445 401 423 429 375V138C405 108 367 67 299 67Z"/>
  <path transform="translate(66.6286,154.6286) scale(0.1142857,-0.1142857)" fill="#3FB950" d="M266 -378H351V1062H266Z"/>
  <path transform="translate(107.4286,154.6286) scale(0.1142857,-0.1142857)" fill="#E6EDF3" d="M532 278C532 448 435 523 318 523C177 523 84 425 84 256C84 106 171 -12 318 -12C386 -12 446 15 488 53L440 109C402 78 362 65 321 65C238 65 185 125 172 222H529C532 245 532 264 532 278ZM170 296C177 388 225 447 318 447C374 447 444 415 447 296Z"/>
  <path transform="translate(170.2857,154.6286) scale(0.1142857,-0.1142857)" fill="#E6EDF3" d="M292 -12C359 -12 402 13 429 42V0H514V722L429 681V475C400 500 357 523 291 523C158 523 72 423 72 256C72 91 156 -12 292 -12ZM303 67C213 67 159 149 159 256C159 377 210 445 302 445C370 445 409 409 429 379V137C403 92 359 67 303 67Z"/>
  <rect x="239.31" y="74.63" width="80.00" height="80.00" rx="3.20" fill="#3FB950"/>
  </g>
  <text x="24" y="1360.4" font-family="monospace" font-size="10" fill="#666666">E — dark bg / terminal green</text>
  <g transform="translate(24.0,1389.4)">
<rect width="355.31" height="231.09" fill="#FFFFFF"/>
  <path transform="translate(28.0000,154.6286) scale(0.1142857,-0.1142857)" fill="#0D1117" stroke="#0D1117" stroke-width="227.50" paint-order="stroke fill" d="M429 -200 514 -161V511H429V467C399 494 358 523 293 523C153 523 70 419 70 255C70 86 159 -12 292 -12C359 -12 397 13 429 48ZM299 67C207 67 158 133 158 255C158 362 210 445 304 445C356 445 401 423 429 375V138C405 108 367 67 299 67Z"/>
  <path transform="translate(66.6286,154.6286) scale(0.1142857,-0.1142857)" fill="#4493F8" stroke="#4493F8" stroke-width="227.50" paint-order="stroke fill" d="M266 -378H351V1062H266Z"/>
  <path transform="translate(107.4286,154.6286) scale(0.1142857,-0.1142857)" fill="#0D1117" stroke="#0D1117" stroke-width="227.50" paint-order="stroke fill" d="M532 278C532 448 435 523 318 523C177 523 84 425 84 256C84 106 171 -12 318 -12C386 -12 446 15 488 53L440 109C402 78 362 65 321 65C238 65 185 125 172 222H529C532 245 532 264 532 278ZM170 296C177 388 225 447 318 447C374 447 444 415 447 296Z"/>
  <path transform="translate(170.2857,154.6286) scale(0.1142857,-0.1142857)" fill="#0D1117" stroke="#0D1117" stroke-width="227.50" paint-order="stroke fill" d="M292 -12C359 -12 402 13 429 42V0H514V722L429 681V475C400 500 357 523 291 523C158 523 72 423 72 256C72 91 156 -12 292 -12ZM303 67C213 67 159 149 159 256C159 377 210 445 302 445C370 445 409 409 429 379V137C403 92 359 67 303 67Z"/>
  <rect x="239.31" y="74.63" width="80.00" height="80.00" rx="3.20" fill="#4493F8"/>
  </g>
  <text x="24" y="1633.5" font-family="monospace" font-size="10" fill="#666666">F — light bg / stroked heavier</text>
  <g transform="translate(24.0,1662.5)">
<rect width="355.31" height="231.09" fill="#0D1117"/>
  <path transform="translate(28.0000,154.6286) scale(0.1142857,-0.1142857)" fill="#E6EDF3" d="M429 -200 514 -161V511H429V467C399 494 358 523 293 523C153 523 70 419 70 255C70 86 159 -12 292 -12C359 -12 397 13 429 48ZM299 67C207 67 158 133 158 255C158 362 210 445 304 445C356 445 401 423 429 375V138C405 108 367 67 299 67Z"/>
  <path transform="translate(66.6286,154.6286) scale(0.1142857,-0.1142857)" fill="#F85149" d="M266 -378H351V1062H266Z"/>
  <path transform="translate(107.4286,154.6286) scale(0.1142857,-0.1142857)" fill="#E6EDF3" d="M532 278C532 448 435 523 318 523C177 523 84 425 84 256C84 106 171 -12 318 -12C386 -12 446 15 488 53L440 109C402 78 362 65 321 65C238 65 185 125 172 222H529C532 245 532 264 532 278ZM170 296C177 388 225 447 318 447C374 447 444 415 447 296Z"/>
  <path transform="translate(170.2857,154.6286) scale(0.1142857,-0.1142857)" fill="#E6EDF3" d="M292 -12C359 -12 402 13 429 42V0H514V722L429 681V475C400 500 357 523 291 523C158 523 72 423 72 256C72 91 156 -12 292 -12ZM303 67C213 67 159 149 159 256C159 377 210 445 302 445C370 445 409 409 429 379V137C403 92 359 67 303 67Z"/>
  <rect x="239.31" y="74.63" width="80.00" height="80.00" rx="3.20" fill="#F85149"/>
  </g>
  <text x="24" y="1906.6" font-family="monospace" font-size="10" fill="#666666">G — dark bg / red accent</text>
</svg>